<?xml version="1.0" encoding="UTF-8"?>
<svg width="40px" height="40px" viewBox="0 0 40 40" version="1.1" xmlns="http://www.w3.org/2000/svg" xmlns:xlink="http://www.w3.org/1999/xlink">
    <!-- Generator: Sketch 46.2 (44496) - http://www.bohemiancoding.com/sketch -->
    <title>close</title>
    <desc>Created with Sketch.</desc>
    <defs></defs>
    <g id="wireframes" stroke="none" stroke-width="1" fill="none" fill-rule="evenodd">
        <g id="wiggle-mode-copy-3" transform="translate(-56.000000, -216.000000)">
            <g id="hexagons-&amp;-arrows" transform="translate(15.000000, 142.000000)">
                <g id="close/expand-copy-7" transform="translate(41.000000, 74.000000)">
                    <g id="close">
                        <circle id="Oval-2" fill="#FAFAFA" cx="20" cy="20" r="20"></circle>
                        <g id="plus-copy" transform="translate(20.000000, 20.000000) rotate(-360.000000) translate(-20.000000, -20.000000) " fill-rule="nonzero" fill="#8A8A8F">
                            <g id="plus">
                                <path d="M20,0 C8.97230769,0 0,8.97153846 0,20 C0,31.0284615 8.97230769,40 20,40 C31.0276923,40 40,31.0284615 40,20 C40,8.97153846 31.0276923,0 20,0 Z M20,38.4615385 C9.82076923,38.4615385 1.53846154,30.1792308 1.53846154,20 C1.53846154,9.82076923 9.82076923,1.53846154 20,1.53846154 C30.1792308,1.53846154 38.4615385,9.82076923 38.4615385,20 C38.4615385,30.1792308 30.1792308,38.4615385 20,38.4615385 Z" id="Shape"></path>
                                <path d="M29.6153846,19.2307692 L20.7692308,19.2307692 L20.7692308,10.7692308 C20.7692308,10.3438462 20.4246154,10 20,10 C19.5753846,10 19.2307692,10.3438462 19.2307692,10.7692308 L19.2307692,19.2307692 L10.3846154,19.2307692 C9.96,19.2307692 9.61538462,19.5746154 9.61538462,20 C9.61538462,20.4253846 9.96,20.7692308 10.3846154,20.7692308 L19.2307692,20.7692308 L19.2307692,30 C19.2307692,30.4253846 19.5753846,30.7692308 20,30.7692308 C20.4246154,30.7692308 20.7692308,30.4253846 20.7692308,30 L20.7692308,20.7692308 L29.6153846,20.7692308 C30.04,20.7692308 30.3846154,20.4253846 30.3846154,20 C30.3846154,19.5746154 30.04,19.2307692 29.6153846,19.2307692 Z" id="Shape" transform="translate(20.000000, 20.384615) rotate(45.000000) translate(-20.000000, -20.384615) "></path>
                            </g>
                        </g>
                    </g>
                </g>
            </g>
        </g>
    </g>
</svg>