<?xml version="1.0" encoding="UTF-8"?>
<svg width="40px" height="40px" viewBox="0 0 40 40" version="1.1" xmlns="http://www.w3.org/2000/svg" xmlns:xlink="http://www.w3.org/1999/xlink">
    <!-- Generator: Sketch 46.2 (44496) - http://www.bohemiancoding.com/sketch -->
    <title>plus copy 2</title>
    <desc>Created with Sketch.</desc>
    <defs></defs>
    <g id="wireframes" stroke="none" stroke-width="1" fill="none" fill-rule="evenodd">
        <g id="wiggle-mode-copy-3" transform="translate(-101.000000, -216.000000)">
            <g id="hexagons-&amp;-arrows" transform="translate(15.000000, 142.000000)">
                <g id="close/expand-copy-7" transform="translate(41.000000, 74.000000)">
                    <g id="plus-copy-2" transform="translate(45.000000, 0.000000)">
                        <circle id="Oval-2" fill="#FAFAFA" cx="20" cy="20" r="20"></circle>
                        <g id="plus" fill-rule="nonzero" fill="#8A8A8F">
                            <path d="M20,0 C8.97230769,0 0,8.97153846 0,20 C0,31.0284615 8.97230769,40 20,40 C31.0276923,40 40,31.0284615 40,20 C40,8.97153846 31.0276923,0 20,0 Z M20,38.4615385 C9.82076923,38.4615385 1.53846154,30.1792308 1.53846154,20 C1.53846154,9.82076923 9.82076923,1.53846154 20,1.53846154 C30.1792308,1.53846154 38.4615385,9.82076923 38.4615385,20 C38.4615385,30.1792308 30.1792308,38.4615385 20,38.4615385 Z" id="Shape"></path>
                        </g>
                        <path d="M16.2451109,20.6884075 L10.9560929,26.2610478 L10.9560929,26.2610478 C10.5758957,26.661633 9.94294646,26.6781607 9.54236125,26.2979635 C9.34342325,26.1091505 9.23076923,25.8469146 9.23076923,25.5726398 L9.23076923,14.4273593 L9.23076923,14.4273593 C9.23076923,13.8750746 9.67848448,13.4273593 10.2307692,13.4273593 C10.505044,13.4273593 10.76728,13.5400133 10.9560929,13.7389513 L16.2451109,19.3115916 L16.2451109,19.3115916 C16.611346,19.6974659 16.611346,20.3025332 16.2451109,20.6884075 Z" id="Triangle-2-Copy" stroke="#8A8A8F" stroke-width="2" stroke-linecap="round" transform="translate(12.915385, 20.000000) scale(-1, 1) translate(-12.915385, -20.000000) "></path>
                        <path d="M30.8576982,20.6882556 L25.5716217,26.2601332 L25.5716217,26.2601332 C25.1915084,26.660798 24.5585626,26.6774583 24.1578978,26.297345 C23.9588675,26.1085236 23.8461538,25.8462247 23.8461538,25.5718771 L23.8461538,14.428122 L23.8461538,14.428122 C23.8461538,13.8758372 24.2938691,13.428122 24.8461538,13.428122 C25.1205014,13.428122 25.3828003,13.5408356 25.5716217,13.7398659 L30.8576982,19.3117435 L30.8576982,19.3117435 C31.2237411,19.6975771 31.2237411,20.302422 30.8576982,20.6882556 Z" id="Triangle-2-Copy-2" stroke="#8A8A8F" stroke-width="2" stroke-linecap="round"></path>
                    </g>
                </g>
            </g>
        </g>
    </g>
</svg>