<?xml version="1.0" encoding="UTF-8"?>
<svg width="166px" height="105px" viewBox="0 0 166 105" version="1.1" xmlns="http://www.w3.org/2000/svg" xmlns:xlink="http://www.w3.org/1999/xlink">
    <!-- Generator: Sketch 46.2 (44496) - http://www.bohemiancoding.com/sketch -->
    <title>Polygon Copy 5</title>
    <desc>Created with Sketch.</desc>
    <defs>
        <linearGradient x1="50%" y1="0%" x2="50%" y2="67.3439672%" id="linearGradient-1">
            <stop stop-color="#E8E7EB" offset="0%"></stop>
            <stop stop-color="#FFFFFF" offset="100%"></stop>
        </linearGradient>
        <linearGradient x1="50%" y1="0%" x2="50%" y2="55.0658903%" id="linearGradient-2">
            <stop stop-color="#E8E7EB" stop-opacity="0.6" offset="0%"></stop>
            <stop stop-color="#FFFFFF" stop-opacity="0.5" offset="100%"></stop>
        </linearGradient>
        <path d="M190.478725,1021.65766 L268.478725,1066.18216 L268.478725,1066.18216 C270.037708,1067.07207 271,1068.7294 271,1070.5245 L271,1159.4755 L271,1159.4755 C271,1161.2706 270.037708,1162.92793 268.478725,1163.81784 L190.478725,1208.34234 L190.478725,1208.34234 C188.942569,1209.21922 187.057431,1209.21922 185.521275,1208.34234 L107.521275,1163.81784 L107.521275,1163.81784 C105.962292,1162.92793 105,1161.2706 105,1159.4755 L105,1070.5245 L105,1070.5245 C105,1068.7294 105.962292,1067.07207 107.521275,1066.18216 L185.521275,1021.65766 L185.521275,1021.65766 C187.057431,1020.78078 188.942569,1020.78078 190.478725,1021.65766 Z" id="path-3"></path>
    </defs>
    <g id="wireframes" stroke="none" stroke-width="1" fill="none" fill-rule="evenodd">
        <g id="wiggle-mode-copy-3" transform="translate(-105.000000, -1021.000000)">
            <g id="Polygon-Copy-5">
                <use fill="#E8E7EB" xlink:href="#path-3"></use>
                <use fill="url(#linearGradient-1)" xlink:href="#path-3"></use>
                <use fill="url(#linearGradient-2)" xlink:href="#path-3"></use>
            </g>
        </g>
    </g>
</svg>