<?xml version="1.0" encoding="UTF-8"?>
<svg width="255px" height="285px" viewBox="0 0 255 285" version="1.1" xmlns="http://www.w3.org/2000/svg" xmlns:xlink="http://www.w3.org/1999/xlink">
    <!-- Generator: Sketch 46.2 (44496) - http://www.bohemiancoding.com/sketch -->
    <title>Polygon Copy 2</title>
    <desc>Created with Sketch.</desc>
    <defs></defs>
    <g id="wireframes" stroke="none" stroke-width="1" fill="none" fill-rule="evenodd">
        <g id="wiggle-mode-copy-3" transform="translate(-60.000000, -297.000000)" fill="#E8E7EB">
            <path d="M189.94828,298.374921 L311.821002,366.816989 L311.821002,366.816989 C313.397084,367.702095 314.372722,369.368959 314.372722,371.176567 L314.372722,507.823433 L314.372722,507.823433 C314.372722,509.631041 313.397084,511.297905 311.821002,512.183011 L189.94828,580.625079 L189.94828,580.625079 C188.427774,581.478974 186.572226,581.478974 185.05172,580.625079 L63.1789982,512.183011 L63.1789982,512.183011 C61.6029159,511.297905 60.6272783,509.631041 60.6272783,507.823433 L60.6272783,371.176567 L60.6272783,371.176567 C60.6272783,369.368959 61.6029159,367.702095 63.1789982,366.816989 L185.05172,298.374921 L185.05172,298.374921 C186.572226,297.521026 188.427774,297.521026 189.94828,298.374921 Z" id="Polygon-Copy-2"></path>
        </g>
    </g>
</svg>