<?xml version="1.0" encoding="UTF-8"?>
<svg width="166px" height="189px" viewBox="0 0 166 189" version="1.1" xmlns="http://www.w3.org/2000/svg" xmlns:xlink="http://www.w3.org/1999/xlink">
    <!-- Generator: Sketch 46.2 (44496) - http://www.bohemiancoding.com/sketch -->
    <title>Polygon</title>
    <desc>Created with Sketch.</desc>
    <defs></defs>
    <g id="wireframes" stroke="none" stroke-width="1" fill="none" fill-rule="evenodd">
        <g id="wiggle-mode-copy-3" transform="translate(-15.000000, -142.000000)" fill="#E8E7EB">
            <g id="hexagons-&amp;-arrows" transform="translate(15.000000, 142.000000)">
                <path d="M85.4835095,0.660393953 L163.483509,45.2989482 L163.483509,45.2989482 C165.039801,46.1895968 166,47.8454291 166,49.6385542 L166,138.839663 L166,138.839663 C166,140.632788 165.039801,142.28862 163.483509,143.179269 L85.4835095,187.817823 L85.4835095,187.817823 C83.9449074,188.698348 82.0550926,188.698348 80.5164905,187.817823 L2.51649052,143.179269 L2.51649052,143.179269 C0.960199168,142.28862 -7.10542736e-14,140.632788 -8.17124146e-14,138.839663 L-1.27897692e-13,49.6385542 L-1.27897692e-13,49.6385542 C-1.27897692e-13,47.8454291 0.960199168,46.1895968 2.51649052,45.2989482 L80.5164905,0.660393953 L80.5164905,0.660393953 C82.0550926,-0.220131318 83.9449074,-0.220131318 85.4835095,0.660393953 Z" id="Polygon"></path>
            </g>
        </g>
    </g>
</svg>